<?xml version="1.0" encoding="UTF-8"?>
<svg xmlns="http://www.w3.org/2000/svg" id="Pulse_Canada_Logo_Horizontal_Reversed_RGB" width="149.409" height="37.73" viewBox="0 0 149.409 37.73">
  <path id="Path_8898" data-name="Path 8898" d="M25.288,49.01a8.952,8.952,0,1,0,9.058,8.951A9.017,9.017,0,0,0,25.288,49.01Z" transform="translate(-15.847 -29.183)" fill="#bdb532"></path>
  <path id="Path_8899" data-name="Path 8899" d="M66.1,70.618a.249.249,0,0,0,.246-.243c.006-.142.012-.284.012-.426a9.4,9.4,0,0,0-18.8,0c0,.142.006.284.012.426a.249.249,0,0,0,.246.243Z" transform="translate(-28.408 -33.936)" fill="#bdb532"></path>
  <path id="Path_8900" data-name="Path 8900" d="M18.447,31.156a9.084,9.084,0,0,0,15.24-5.95,8.827,8.827,0,0,0-2.438-6.7,9.032,9.032,0,0,0-6.6-2.824H15.872a.28.28,0,0,0-.282.278v8.673A8.806,8.806,0,0,0,18.447,31.156Z" transform="translate(-15.59 -15.585)" fill="#bdb532"></path>
  <path id="Path_8901" data-name="Path 8901" d="M66.861,24.43a9.016,9.016,0,0,0-18.031,0v7.235a9.016,9.016,0,0,0,18.031,0Z" transform="translate(-28.917 -15.52)" fill="#bdb532"></path>
  <g id="Group_4897" data-name="Group 4897" transform="translate(45.36 0.184)">
    <g id="Group_4896" data-name="Group 4896">
      <path id="Path_8902" data-name="Path 8902" d="M92.14,32V16.487a.239.239,0,0,1,.24-.237h8.483a6.273,6.273,0,0,1,3.355.817,5.084,5.084,0,0,1,1.971,2.2,6.993,6.993,0,0,1,.653,3.043,6.242,6.242,0,0,1-.755,3.079,5.5,5.5,0,0,1-2.109,2.149,6.337,6.337,0,0,1-3.217.781H97.783a.239.239,0,0,0-.24.237V32a.239.239,0,0,1-.24.237H92.38A.23.23,0,0,1,92.14,32Zm5.4-8.069a.239.239,0,0,0,.24.237H99.5a1.774,1.774,0,0,0,1.372-.509,1.927,1.927,0,0,0,.467-1.356,2.127,2.127,0,0,0-.425-1.4,1.609,1.609,0,0,0-1.306-.509H97.789a.239.239,0,0,0-.24.237v3.3Z" transform="translate(-91.643 -16.001)" fill="#fff"></path>
      <path id="Path_8903" data-name="Path 8903" d="M127.7,32.489a10.374,10.374,0,0,1-4.044-.746,6.308,6.308,0,0,1-2.8-2.185,6.007,6.007,0,0,1-1.018-3.552V16.5a.254.254,0,0,1,.258-.255h4.888a.254.254,0,0,1,.258.255v8.886q0,2.584,2.462,2.581t2.462-2.581V16.5a.254.254,0,0,1,.258-.255H135.3a.254.254,0,0,1,.258.255v9.508a6.007,6.007,0,0,1-1.018,3.552,6.339,6.339,0,0,1-2.792,2.185A10.353,10.353,0,0,1,127.7,32.489Z" transform="translate(-102.745 -16.001)" fill="#fff"></path>
      <path id="Path_8904" data-name="Path 8904" d="M150.92,31.986V16.5a.254.254,0,0,1,.258-.255h4.888a.254.254,0,0,1,.258.255V27.913a.254.254,0,0,0,.258.255H163a.254.254,0,0,1,.258.255v3.564a.254.254,0,0,1-.258.255H151.178A.254.254,0,0,1,150.92,31.986Z" transform="translate(-115.21 -16.001)" fill="#fff"></path>
      <path id="Path_8905" data-name="Path 8905" d="M179.991,32.318a17.989,17.989,0,0,1-3.2-.272,11.033,11.033,0,0,1-2.426-.7.253.253,0,0,1-.15-.237V27.493a.255.255,0,0,1,.359-.231,14.783,14.783,0,0,0,2.24.734,11.072,11.072,0,0,0,2.6.349,4.564,4.564,0,0,0,1.546-.2.737.737,0,0,0,.539-.746q0-.622-.827-.906c-.551-.189-1.348-.462-2.39-.805a10.591,10.591,0,0,1-2.528-1.178,3.639,3.639,0,0,1-1.318-1.539,5.439,5.439,0,0,1-.4-2.22q0-4.92,6.913-4.92a15.4,15.4,0,0,1,1.821.112c.647.077,1.264.166,1.857.272.509.095.958.2,1.342.308a.251.251,0,0,1,.18.249v3.641a.262.262,0,0,1-.353.237,13.442,13.442,0,0,0-1.995-.574,10.019,10.019,0,0,0-1.947-.213,8.682,8.682,0,0,0-1.593.136q-.719.133-.719.71,0,.471.629.71c.419.16,1.12.367,2.109.633a9.406,9.406,0,0,1,3,1.291,3.812,3.812,0,0,1,1.384,1.752,6.8,6.8,0,0,1,.365,2.3,4.3,4.3,0,0,1-1.761,3.588A8.65,8.65,0,0,1,179.991,32.318Z" transform="translate(-124.476 -15.83)" fill="#fff"></path>
      <path id="Path_8906" data-name="Path 8906" d="M199.92,31.986V16.5a.254.254,0,0,1,.258-.255h12.077a.254.254,0,0,1,.258.255v3.44a.254.254,0,0,1-.258.255h-6.673a.254.254,0,0,0-.258.255v1.527a.254.254,0,0,0,.258.255h5.739a.254.254,0,0,1,.258.255v3.534a.254.254,0,0,1-.258.255h-5.739a.254.254,0,0,0-.258.255v1.5a.254.254,0,0,0,.258.255h6.673a.254.254,0,0,1,.258.255v3.44a.254.254,0,0,1-.258.255H200.178A.249.249,0,0,1,199.92,31.986Z" transform="translate(-134.857 -16.001)" fill="#fff"></path>
      <path id="Path_8907" data-name="Path 8907" d="M100.655,66.98q-4.6,0-6.973-2.114A7.719,7.719,0,0,1,91.31,58.78a7.915,7.915,0,0,1,2.336-6.187q2.336-2.114,6.961-2.114a14.929,14.929,0,0,1,2.738.225,13.427,13.427,0,0,1,2.115.58.262.262,0,0,1,.174.243v4.085a.255.255,0,0,1-.359.231,12.5,12.5,0,0,0-1.917-.6A10.912,10.912,0,0,0,100.985,55a4.842,4.842,0,0,0-3.1.858,3.533,3.533,0,0,0-1.066,2.919,3.3,3.3,0,0,0,1.12,2.842,5.085,5.085,0,0,0,3.1.835,11.271,11.271,0,0,0,4.289-.823.262.262,0,0,1,.359.231v4.1a.264.264,0,0,1-.174.249,13.8,13.8,0,0,1-2.127.545A14.624,14.624,0,0,1,100.655,66.98Z" transform="translate(-91.31 -29.966)" fill="#fff"></path>
      <path id="Path_8908" data-name="Path 8908" d="M116.35,66.553l6.009-15.487a.252.252,0,0,1,.24-.166h5.3a.252.252,0,0,1,.24.166l6.032,15.487a.257.257,0,0,1-.24.349h-5.074a.255.255,0,0,1-.24-.16l-1.126-2.854a.247.247,0,0,0-.24-.16h-4a.252.252,0,0,0-.24.166l-1.1,2.854a.252.252,0,0,1-.24.166H116.6A.274.274,0,0,1,116.35,66.553Zm7.758-6.56h2.282a.257.257,0,0,0,.24-.349l-1.15-2.907a.261.261,0,0,0-.485,0l-1.132,2.907A.261.261,0,0,0,124.107,59.994Z" transform="translate(-101.343 -30.138)" fill="#fff"></path>
      <path id="Path_8909" data-name="Path 8909" d="M148.86,66.646V51.165a.254.254,0,0,1,.258-.255h4.157a.262.262,0,0,1,.21.107l4.78,6.619a.258.258,0,0,0,.467-.148V51.165a.254.254,0,0,1,.258-.255h4.888a.254.254,0,0,1,.258.255V66.652a.254.254,0,0,1-.258.255h-4.205a.262.262,0,0,1-.21-.107l-4.727-6.589a.261.261,0,0,0-.473.148v6.287a.254.254,0,0,1-.258.255h-4.888A.254.254,0,0,1,148.86,66.646Z" transform="translate(-114.384 -30.142)" fill="#fff"></path>
      <path id="Path_8910" data-name="Path 8910" d="M177.1,66.553l6.008-15.487a.252.252,0,0,1,.24-.166h5.3a.252.252,0,0,1,.24.166l6.032,15.487a.257.257,0,0,1-.24.349h-5.074a.255.255,0,0,1-.24-.16l-1.126-2.854a.247.247,0,0,0-.24-.16h-4a.252.252,0,0,0-.24.166l-1.1,2.854a.252.252,0,0,1-.24.166h-5.074A.277.277,0,0,1,177.1,66.553Zm7.758-6.56h2.282a.257.257,0,0,0,.24-.349l-1.15-2.913a.261.261,0,0,0-.485,0l-1.132,2.913A.261.261,0,0,0,184.858,59.994Z" transform="translate(-125.701 -30.138)" fill="#fff"></path>
      <path id="Path_8911" data-name="Path 8911" d="M209.61,66.646V51.165a.254.254,0,0,1,.258-.255h7.207a10.742,10.742,0,0,1,4.349.805,5.787,5.787,0,0,1,2.792,2.581A9.737,9.737,0,0,1,225.2,59q0,4.147-2.139,6.021a8.785,8.785,0,0,1-5.985,1.877h-7.207A.254.254,0,0,1,209.61,66.646Zm5.409-4.073a.254.254,0,0,0,.258.255h1.15a4.737,4.737,0,0,0,1.761-.3,2.142,2.142,0,0,0,1.12-1.119A5.846,5.846,0,0,0,219.7,59a6.384,6.384,0,0,0-.353-2.41,2.037,2.037,0,0,0-1.078-1.131,4.693,4.693,0,0,0-1.833-.308h-1.15a.254.254,0,0,0-.258.255v7.164Z" transform="translate(-138.742 -30.142)" fill="#fff"></path>
      <path id="Path_8912" data-name="Path 8912" d="M235.208,66.553l6.008-15.487a.252.252,0,0,1,.24-.166h5.3a.252.252,0,0,1,.24.166l6.032,15.487a.257.257,0,0,1-.24.349h-5.074a.255.255,0,0,1-.24-.16l-1.126-2.854a.247.247,0,0,0-.24-.16h-4a.252.252,0,0,0-.24.166l-1.1,2.854a.252.252,0,0,1-.24.166H235.46A.272.272,0,0,1,235.208,66.553Zm7.758-6.56h2.282a.257.257,0,0,0,.24-.349l-1.15-2.913a.261.261,0,0,0-.485,0l-1.132,2.913A.261.261,0,0,0,242.966,59.994Z" transform="translate(-148.998 -30.138)" fill="#fff"></path>
    </g>
  </g>
</svg>
